####
#
# OBJ File Generated by Meshlab
#
####
# Object Building.obj
#
# Vertices: 36
# Faces: 18
#
####
mtllib ./Building.obj.mtl

vn 0.000000 0.000000 1.000000
vt 0.000000 0.000000
v -11.016364 -34.953274 10.710085
vn 0.000000 0.000000 1.000000
vt 0.000000 1.000000
v -11.016364 34.953274 10.710085
vn 0.000000 0.000000 1.000000
vt 1.000000 1.000000
v 11.016364 34.953274 10.710085
vn 0.000000 0.000000 1.000000
vt 1.000000 0.000000
v 11.016364 -34.953274 10.710085
vn 1.000000 0.000000 0.000000
vt 0.000000 0.000000
v 11.016364 -34.953274 10.710085
vn 1.000000 0.000000 0.000000
vt 0.000000 1.000000
v 11.016364 34.953274 10.710085
vn 1.000000 0.000000 0.000000
vt 1.000000 1.000000
v 11.016364 34.953274 -10.710085
vn 1.000000 0.000000 0.000000
vt 1.000000 0.000000
v 11.016364 -34.953274 -10.710085
vn 0.000000 0.000000 -1.000000
vt 0.000000 0.000000
v 11.016364 -34.953274 -10.710085
vn 0.000000 0.000000 -1.000000
vt 0.000000 1.000000
v 11.016364 34.953274 -10.710085
vn 0.000000 0.000000 -1.000000
vt 1.000000 1.000000
v -11.016364 34.953274 -10.710085
vn 0.000000 0.000000 -1.000000
vt 1.000000 0.000000
v -11.016364 -34.953274 -10.710085
vn -1.000000 0.000000 0.000000
vt 0.000000 0.000000
v -11.016364 -34.953274 -10.710085
vn -1.000000 0.000000 0.000000
vt 0.000000 1.000000
v -11.016364 34.953274 -10.710085
vn -1.000000 0.000000 0.000000
vt 1.000000 1.000000
v -11.016364 34.953274 10.710085
vn -1.000000 0.000000 0.000000
vt 1.000000 0.000000
v -11.016364 -34.953274 10.710085
vn 0.000000 1.000000 0.000000
vt 0.000000 0.000000
v -11.016364 34.953274 10.710085
vn 0.000000 1.000000 0.000000
vt 0.000000 1.000000
v -11.016364 34.953274 -10.710085
vn 0.000000 1.000000 0.000000
vt 1.000000 1.000000
v 11.016364 34.953274 -10.710085
vn 0.000000 1.000000 0.000000
vt 1.000000 0.000000
v 11.016364 34.953274 10.710085
vn 0.000000 1.000000 0.000000
vt 0.000000 1.000000
v 11.016364 -34.953274 10.710085
vn 0.000000 1.000000 0.000000
vt 1.000000 1.000000
v 139.229675 -34.953274 135.358780
vn 0.000000 1.000000 0.000000
vt 1.000000 0.000000
v -139.229675 -34.953274 135.358780
vn 0.000000 1.000000 0.000000
vt 0.000000 0.000000
v -11.016364 -34.953274 10.710085
vn 0.000000 1.000000 0.000000
vt 0.000000 1.000000
v 11.016364 -34.953274 -10.710085
vn 0.000000 1.000000 0.000000
vt 1.000000 1.000000
v 139.229675 -34.953274 -135.358780
vn 0.000000 1.000000 0.000000
vt 1.000000 0.000000
v 139.229675 -34.953274 135.358780
vn 0.000000 1.000000 0.000000
vt 0.000000 0.000000
v 11.016364 -34.953274 10.710085
vn 0.000000 1.000000 0.000000
vt 0.000000 1.000000
v -11.016364 -34.953274 10.710085
vn 0.000000 1.000000 0.000000
vt 1.000000 1.000000
v -139.229675 -34.953274 135.358780
vn 0.000000 1.000000 0.000000
vt 1.000000 0.000000
v -139.229675 -34.953274 -135.358780
vn 0.000000 1.000000 0.000000
vt 0.000000 0.000000
v -11.016364 -34.953274 -10.710085
vn 0.000000 1.000000 0.000000
vt 0.000000 1.000000
v -11.016364 -34.953274 -10.710085
vn 0.000000 1.000000 0.000000
vt 1.000000 1.000000
v -139.229675 -34.953274 -135.358780
vn 0.000000 1.000000 0.000000
vt 1.000000 0.000000
v 139.229675 -34.953274 -135.358780
vn 0.000000 1.000000 0.000000
vt 0.000000 0.000000
v 11.016364 -34.953274 -10.710085
# 36 vertices, 0 vertices normals


usemtl material_0
f 3/3/3 2/2/2 1/1/1
f 7/7/7 6/6/6 5/5/5
f 11/11/11 10/10/10 9/9/9
f 15/15/15 14/14/14 13/13/13
f 19/19/19 18/18/18 17/17/17
f 23/23/23 22/22/22 21/21/21
f 27/27/27 26/26/26 25/25/25
f 31/31/31 30/30/30 29/29/29
f 35/35/35 34/34/34 33/33/33
f 4/4/4 3/3/3 1/1/1
f 8/8/8 7/7/7 5/5/5
f 12/12/12 11/11/11 9/9/9
f 16/16/16 15/15/15 13/13/13
f 20/20/20 19/19/19 17/17/17
f 24/24/24 23/23/23 21/21/21
f 28/28/28 27/27/27 25/25/25
f 32/32/32 31/31/31 29/29/29
f 36/36/36 35/35/35 33/33/33
# 18 faces, 0 coords texture

# End of File
