####
#
# OBJ File Generated by Meshlab
#
####
# Object Icosahedron.obj
#
# Vertices: 60
# Faces: 20
#
####
mtllib ./Icosahedron.obj.mtl

vn 0.000000 0.934172 0.356822
vt 0.000000 1.000000
v -50.000000 80.901695 0.000000
vn 0.000000 0.934172 0.356822
vt 1.000000 1.000000
v 50.000000 80.901695 0.000000
vn 0.000000 0.934172 0.356822
vt 0.500000 0.000000
v 0.000000 50.000000 80.901695
vn 0.577350 0.577350 0.577350
vt 0.000000 1.000000
v 50.000000 80.901695 0.000000
vn 0.577350 0.577350 0.577350
vt 1.000000 1.000000
v 80.901695 0.000000 50.000000
vn 0.577350 0.577350 0.577350
vt 0.500000 0.000000
v 0.000000 50.000000 80.901695
vn 0.934172 0.356822 0.000000
vt 0.000000 1.000000
v 50.000000 80.901695 0.000000
vn 0.934172 0.356822 0.000000
vt 1.000000 1.000000
v 80.901695 0.000000 -50.000000
vn 0.934172 0.356822 0.000000
vt 0.500000 0.000000
v 80.901695 0.000000 50.000000
vn 0.577350 0.577350 -0.577350
vt 0.000000 1.000000
v 50.000000 80.901695 0.000000
vn 0.577350 0.577350 -0.577350
vt 1.000000 1.000000
v 0.000000 50.000000 -80.901695
vn 0.577350 0.577350 -0.577350
vt 0.500000 0.000000
v 80.901695 0.000000 -50.000000
vn 0.000000 0.934172 -0.356822
vt 0.000000 1.000000
v 50.000000 80.901695 0.000000
vn 0.000000 0.934172 -0.356822
vt 1.000000 1.000000
v -50.000000 80.901695 0.000000
vn 0.000000 0.934172 -0.356822
vt 0.500000 0.000000
v 0.000000 50.000000 -80.901695
vn -0.577350 0.577350 -0.577350
vt 0.000000 1.000000
v 0.000000 50.000000 -80.901695
vn -0.577350 0.577350 -0.577350
vt 1.000000 1.000000
v -50.000000 80.901695 0.000000
vn -0.577350 0.577350 -0.577350
vt 0.500000 0.000000
v -80.901695 0.000000 -50.000000
vn -0.934172 0.356822 0.000000
vt 0.000000 1.000000
v -80.901695 0.000000 -50.000000
vn -0.934172 0.356822 0.000000
vt 1.000000 1.000000
v -50.000000 80.901695 0.000000
vn -0.934172 0.356822 0.000000
vt 0.500000 0.000000
v -80.901695 0.000000 50.000000
vn -0.577350 0.577350 0.577350
vt 0.000000 1.000000
v -50.000000 80.901695 0.000000
vn -0.577350 0.577350 0.577350
vt 1.000000 1.000000
v 0.000000 50.000000 80.901695
vn -0.577350 0.577350 0.577350
vt 0.500000 0.000000
v -80.901695 0.000000 50.000000
vn 0.000000 -0.934172 0.356822
vt 0.000000 1.000000
v 50.000000 -80.901695 0.000000
vn 0.000000 -0.934172 0.356822
vt 1.000000 1.000000
v -50.000000 -80.901695 0.000000
vn 0.000000 -0.934172 0.356822
vt 0.500000 0.000000
v 0.000000 -50.000000 80.901695
vn 0.577350 -0.577350 0.577350
vt 0.000000 1.000000
v 80.901695 0.000000 50.000000
vn 0.577350 -0.577350 0.577350
vt 1.000000 1.000000
v 50.000000 -80.901695 0.000000
vn 0.577350 -0.577350 0.577350
vt 0.500000 0.000000
v 0.000000 -50.000000 80.901695
vn 0.934172 -0.356822 0.000000
vt 0.000000 1.000000
v 80.901695 0.000000 50.000000
vn 0.934172 -0.356822 0.000000
vt 1.000000 1.000000
v 80.901695 0.000000 -50.000000
vn 0.934172 -0.356822 0.000000
vt 0.500000 0.000000
v 50.000000 -80.901695 0.000000
vn 0.577350 -0.577350 -0.577350
vt 0.000000 1.000000
v 80.901695 0.000000 -50.000000
vn 0.577350 -0.577350 -0.577350
vt 1.000000 1.000000
v 0.000000 -50.000000 -80.901695
vn 0.577350 -0.577350 -0.577350
vt 0.500000 0.000000
v 50.000000 -80.901695 0.000000
vn 0.000000 -0.934172 -0.356822
vt 0.000000 1.000000
v 0.000000 -50.000000 -80.901695
vn 0.000000 -0.934172 -0.356822
vt 1.000000 1.000000
v -50.000000 -80.901695 0.000000
vn 0.000000 -0.934172 -0.356822
vt 0.500000 0.000000
v 50.000000 -80.901695 0.000000
vn -0.577350 -0.577350 -0.577350
vt 0.000000 1.000000
v 0.000000 -50.000000 -80.901695
vn -0.577350 -0.577350 -0.577350
vt 1.000000 1.000000
v -80.901695 0.000000 -50.000000
vn -0.577350 -0.577350 -0.577350
vt 0.500000 0.000000
v -50.000000 -80.901695 0.000000
vn -0.934172 -0.356822 0.000000
vt 0.000000 1.000000
v -80.901695 0.000000 -50.000000
vn -0.934172 -0.356822 0.000000
vt 1.000000 1.000000
v -80.901695 0.000000 50.000000
vn -0.934172 -0.356822 0.000000
vt 0.500000 0.000000
v -50.000000 -80.901695 0.000000
vn -0.577350 -0.577350 0.577350
vt 0.000000 1.000000
v -80.901695 0.000000 50.000000
vn -0.577350 -0.577350 0.577350
vt 1.000000 1.000000
v 0.000000 -50.000000 80.901695
vn -0.577350 -0.577350 0.577350
vt 0.500000 0.000000
v -50.000000 -80.901695 0.000000
vn -0.356822 0.000000 0.934172
vt 0.000000 1.000000
v 0.000000 -50.000000 80.901695
vn -0.356822 0.000000 0.934172
vt 1.000000 1.000000
v -80.901695 0.000000 50.000000
vn -0.356822 0.000000 0.934172
vt 0.500000 0.000000
v 0.000000 50.000000 80.901695
vn 0.356822 0.000000 0.934172
vt 0.000000 1.000000
v 80.901695 0.000000 50.000000
vn 0.356822 0.000000 0.934172
vt 1.000000 1.000000
v 0.000000 -50.000000 80.901695
vn 0.356822 0.000000 0.934172
vt 0.500000 0.000000
v 0.000000 50.000000 80.901695
vn 0.356822 0.000000 -0.934172
vt 0.000000 1.000000
v 0.000000 50.000000 -80.901695
vn 0.356822 0.000000 -0.934172
vt 1.000000 1.000000
v 0.000000 -50.000000 -80.901695
vn 0.356822 0.000000 -0.934172
vt 0.500000 0.000000
v 80.901695 0.000000 -50.000000
vn -0.356822 0.000000 -0.934172
vt 0.000000 1.000000
v 0.000000 50.000000 -80.901695
vn -0.356822 0.000000 -0.934172
vt 1.000000 1.000000
v -80.901695 0.000000 -50.000000
vn -0.356822 0.000000 -0.934172
vt 0.500000 0.000000
v 0.000000 -50.000000 -80.901695
# 60 vertices, 0 vertices normals


usemtl material_0
f 3/3/3 2/2/2 1/1/1
f 6/6/6 5/5/5 4/4/4
f 9/9/9 8/8/8 7/7/7
f 12/12/12 11/11/11 10/10/10
f 15/15/15 14/14/14 13/13/13
f 18/18/18 17/17/17 16/16/16
f 21/21/21 20/20/20 19/19/19
f 24/24/24 23/23/23 22/22/22
f 27/27/27 26/26/26 25/25/25
f 30/30/30 29/29/29 28/28/28
f 33/33/33 32/32/32 31/31/31
f 36/36/36 35/35/35 34/34/34
f 39/39/39 38/38/38 37/37/37
f 42/42/42 41/41/41 40/40/40
f 45/45/45 44/44/44 43/43/43
f 48/48/48 47/47/47 46/46/46
f 51/51/51 50/50/50 49/49/49
f 54/54/54 53/53/53 52/52/52
f 57/57/57 56/56/56 55/55/55
f 60/60/60 59/59/59 58/58/58
# 20 faces, 0 coords texture

# End of File
